# xmcd
#
# Track frame offsets:
#	150
#	15790
#	31760
#	48295
#	63432
#	76325
#	93587
#	106865
#	125237
#	137417
#	152467
#	172532
#	185470
#	198715
#
# Disc length: 2876
#
# Revision: 1
# Processed by: cddbd v1.5.1PL0 Copyright (c) Steve Scherf et al.
# Submitted via: VisiTrax 2.9.5.180 - For more info visit www.synapsa.com
# Normalized: r0:DSETVAR1
#
DISCID=a20b3a0e
DTITLE=Various Artist - Mr Music Country 7-02
DYEAR=2002
DGENRE=Country
TTITLE0=Johnny Cash with Marty Robbins - The Patriot
TTITLE1=Ron Wallace - Cotton Country Queen
TTITLE2=Patty Loveless - Cheap Whiskey
TTITLE3=Tyler England with Steve Wariner - Should've Asked Her Faster
TTITLE4=Tom Russell - The Rose Of The San Joaquin
TTITLE5=Collin Raye - Dancing With No Music Playing
TTITLE6=Justin Trevino - Loud Music And Strong Wine
TTITLE7=Steve Wariner - I Wish I Were a Train
TTITLE8=Wade Hayes - That's What Honky Tonks Are For
TTITLE9=Pat Roden - Don't Cross My Heart
TTITLE10=The Derailers - All The Rages In Paris
TTITLE11=T. Jae Christian - Meanwhile Down At The Honky Tonk
TTITLE12=Tony Martin - I Should Have But I Didn't
TTITLE13=Claude Gray - The Last Thing On My Mind
EXTD=
EXTT0=
EXTT1=
EXTT2=
EXTT3=
EXTT4=
EXTT5=
EXTT6=
EXTT7=
EXTT8=
EXTT9=
EXTT10=
EXTT11=
EXTT12=
EXTT13=
PLAYORDER=
